<mxfile host="app.diagrams.net" agent="Mozilla/5.0 (Windows NT 10.0; Win64; x64) AppleWebKit/537.36 (KHTML, like Gecko) Chrome/131.0.0.0 Safari/537.36" version="25.0.1">
  <diagram name="Page-1" id="UmImncsjw8I0hgPhHvTE">
    <mxGraphModel dx="883" dy="597" grid="1" gridSize="10" guides="1" tooltips="1" connect="1" arrows="1" fold="1" page="1" pageScale="1" pageWidth="850" pageHeight="1100" math="0" shadow="0">
      <root>
        <mxCell id="0" />
        <mxCell id="1" parent="0" />
        <mxCell id="5AjF7nYwhDz9AV7oWqka-1" value="User" style="shape=umlLifeline;perimeter=lifelinePerimeter;whiteSpace=wrap;html=1;container=1;dropTarget=0;collapsible=0;recursiveResize=0;outlineConnect=0;portConstraint=eastwest;newEdgeStyle={&quot;curved&quot;:0,&quot;rounded&quot;:0};" parent="1" vertex="1">
          <mxGeometry x="150" y="70" width="100" height="230" as="geometry" />
        </mxCell>
        <mxCell id="5AjF7nYwhDz9AV7oWqka-4" value="Login Page" style="shape=umlLifeline;perimeter=lifelinePerimeter;whiteSpace=wrap;html=1;container=1;dropTarget=0;collapsible=0;recursiveResize=0;outlineConnect=0;portConstraint=eastwest;newEdgeStyle={&quot;curved&quot;:0,&quot;rounded&quot;:0};" parent="1" vertex="1">
          <mxGeometry x="330" y="70" width="100" height="270" as="geometry" />
        </mxCell>
        <mxCell id="5AjF7nYwhDz9AV7oWqka-7" value="Server" style="shape=umlLifeline;perimeter=lifelinePerimeter;whiteSpace=wrap;html=1;container=1;dropTarget=0;collapsible=0;recursiveResize=0;outlineConnect=0;portConstraint=eastwest;newEdgeStyle={&quot;curved&quot;:0,&quot;rounded&quot;:0};" parent="1" vertex="1">
          <mxGeometry x="510" y="70" width="100" height="270" as="geometry" />
        </mxCell>
        <mxCell id="5AjF7nYwhDz9AV7oWqka-11" value="&quot;Enter Username&lt;div&gt;and Password&quot;&lt;/div&gt;" style="html=1;verticalAlign=bottom;endArrow=block;curved=0;rounded=0;" parent="1" edge="1" target="5AjF7nYwhDz9AV7oWqka-4">
          <mxGeometry x="0.011" width="80" relative="1" as="geometry">
            <mxPoint x="200" y="150" as="sourcePoint" />
            <mxPoint x="340" y="150" as="targetPoint" />
            <mxPoint as="offset" />
          </mxGeometry>
        </mxCell>
        <mxCell id="5AjF7nYwhDz9AV7oWqka-12" value="&quot;Login Success/Failure&quot;" style="html=1;verticalAlign=bottom;endArrow=open;dashed=1;endSize=8;curved=0;rounded=0;" parent="1" edge="1" target="5AjF7nYwhDz9AV7oWqka-1">
          <mxGeometry relative="1" as="geometry">
            <mxPoint x="380" y="300" as="sourcePoint" />
            <mxPoint x="209.32352941176464" y="300" as="targetPoint" />
            <mxPoint as="offset" />
          </mxGeometry>
        </mxCell>
        <mxCell id="5AjF7nYwhDz9AV7oWqka-14" value="&quot;Send Login Request&quot;" style="html=1;verticalAlign=bottom;endArrow=block;curved=0;rounded=0;" parent="1" edge="1">
          <mxGeometry x="0.011" width="80" relative="1" as="geometry">
            <mxPoint x="379.32352941176464" y="146" as="sourcePoint" />
            <mxPoint x="560" y="146" as="targetPoint" />
            <mxPoint as="offset" />
          </mxGeometry>
        </mxCell>
        <mxCell id="5AjF7nYwhDz9AV7oWqka-15" value="&quot;Return Validation Result&quot;" style="html=1;verticalAlign=bottom;endArrow=open;dashed=1;endSize=8;curved=0;rounded=0;" parent="1" edge="1">
          <mxGeometry x="0.0076" relative="1" as="geometry">
            <mxPoint x="559.5" y="292.9999999999999" as="sourcePoint" />
            <mxPoint x="379.32352941176464" y="292.9999999999999" as="targetPoint" />
            <mxPoint as="offset" />
          </mxGeometry>
        </mxCell>
        <mxCell id="5AjF7nYwhDz9AV7oWqka-25" value="&lt;strong style=&quot;color: rgb(32, 33, 34); font-family: Lato, &amp;quot;Lucida Sans Unicode&amp;quot;, &amp;quot;Lucida Grande&amp;quot;, sans-serif; font-size: 19px; letter-spacing: 0.2px; text-align: left; background-color: rgb(255, 255, 255);&quot;&gt;Sequence Diagram&lt;/strong&gt;" style="text;html=1;align=center;verticalAlign=middle;whiteSpace=wrap;rounded=0;" parent="1" vertex="1">
          <mxGeometry x="290" y="360" width="180" height="20" as="geometry" />
        </mxCell>
        <mxCell id="5AjF7nYwhDz9AV7oWqka-26" value="&quot;Show Error Message&quot;" style="edgeStyle=orthogonalEdgeStyle;rounded=0;orthogonalLoop=1;jettySize=auto;html=1;curved=0;elbow=vertical;" parent="1" edge="1">
          <mxGeometry x="0.0004" relative="1" as="geometry">
            <mxPoint x="380.0015384615386" y="172.0000000000001" as="sourcePoint" />
            <mxPoint x="380.0015384615386" y="261.9999999999999" as="targetPoint" />
            <Array as="points">
              <mxPoint x="380.04" y="192" />
              <mxPoint x="441.04" y="192" />
              <mxPoint x="441.04" y="262" />
            </Array>
            <mxPoint as="offset" />
          </mxGeometry>
        </mxCell>
        <mxCell id="_tIpTu_bsE5iHmAqSm89-1" value="Processing Request" style="rounded=0;whiteSpace=wrap;html=1;" vertex="1" parent="1">
          <mxGeometry x="380" y="152" width="180" height="20" as="geometry" />
        </mxCell>
        <mxCell id="_tIpTu_bsE5iHmAqSm89-7" value="&lt;p data-pm-slice=&quot;0 0 []&quot;&gt;Display Result&lt;/p&gt;" style="rounded=0;whiteSpace=wrap;html=1;" vertex="1" parent="1">
          <mxGeometry x="380" y="300" width="180" height="20" as="geometry" />
        </mxCell>
        <mxCell id="_tIpTu_bsE5iHmAqSm89-9" value="&lt;p data-pm-slice=&quot;0 0 []&quot;&gt;&quot;Validating Credentials&quot;&lt;/p&gt;" style="rounded=0;whiteSpace=wrap;html=1;" vertex="1" parent="1">
          <mxGeometry x="520" y="210" width="80" height="30" as="geometry" />
        </mxCell>
      </root>
    </mxGraphModel>
  </diagram>
</mxfile>
